<?xml version="1.0" encoding="utf-8"?>
<!-- Generator: Adobe Illustrator 16.0.0, SVG Export Plug-In . SVG Version: 6.00 Build 0)  -->
<!DOCTYPE svg PUBLIC "-//W3C//DTD SVG 1.1//EN" "http://www.w3.org/Graphics/SVG/1.1/DTD/svg11.dtd">
<svg version="1.1" id="Layer_1" xmlns="http://www.w3.org/2000/svg" xmlns:xlink="http://www.w3.org/1999/xlink" x="0px" y="0px"
	 width="25px" height="25px" viewBox="0 0 25 25" enable-background="new 0 0 25 25" xml:space="preserve">
<g>
	
		<line fill="none" stroke="#41C2CC" stroke-width="1.5" stroke-linecap="round" stroke-miterlimit="10" x1="3.39" y1="3.157" x2="1.732" y2="1.5"/>
	<line fill="none" stroke="#41C2CC" stroke-width="2" stroke-linecap="round" stroke-miterlimit="10" x1="3" y1="7" x2="2" y2="7"/>
	
		<line fill="none" stroke="#41C2CC" stroke-width="1.5" stroke-linecap="round" stroke-miterlimit="10" x1="5.656" y1="2.1" x2="5.656" y2="2.1"/>
	<path fill="none" stroke="#41C2CC" stroke-width="1.5" stroke-linecap="round" stroke-miterlimit="10" d="M13.571,4.374
		c1.015-0.834,2.313-1.335,3.729-1.335c3.246,0,5.877,2.631,5.877,5.876"/>
	<path fill="none" stroke="#41C2CC" stroke-width="1.5" stroke-linecap="round" stroke-miterlimit="10" d="M23.178,8.916
		c0,6.159-2.713,12.206-2.713,12.206c-0.414,0.978-0.81,1.808-1.809,1.808s-1.62-0.697-1.808-1.808c0,0-0.904-5.651-3.391-5.651
		c-2.485,0-3.39,5.651-3.39,5.651c-0.113,1.11-0.809,1.808-1.808,1.808c-0.999,0-1.519-0.905-1.808-1.808
		c0,0-2.486-6.047-2.486-12.206"/>
	<path fill="none" stroke="#41C2CC" stroke-width="1.5" stroke-linecap="round" stroke-miterlimit="10" d="M3.965,8.916
		c0-3.246,2.631-5.876,5.877-5.876c1.416,0,2.714,0.501,3.73,1.335"/>
	<path fill="none" stroke="#41C2CC" stroke-width="1.5" stroke-linecap="round" stroke-miterlimit="10" d="M6.113,9.029
		c0-2.123,1.72-3.842,3.842-3.842"/>
	<path fill="none" stroke="#41C2CC" stroke-width="1.5" stroke-linecap="round" stroke-miterlimit="10" d="M16.424,5.789
		c0.577,0.198,1.211,0.366,1.894,0.471"/>
	<path fill="none" stroke="#41C2CC" stroke-width="1.5" stroke-linecap="round" stroke-miterlimit="10" d="M13.073,4.006
		c0,0,0.729,0.605,1.955,1.204"/>
</g>
</svg>
