<?xml version="1.0" encoding="iso-8859-1"?>
<!-- Generator: Adobe Illustrator 19.0.0, SVG Export Plug-In . SVG Version: 6.00 Build 0)  -->
<svg xmlns="http://www.w3.org/2000/svg" xmlns:xlink="http://www.w3.org/1999/xlink" version="1.1" id="Layer_1" x="0px" y="0px" viewBox="0 0 512 512" style="enable-background:new 0 0 512 512;" xml:space="preserve">
<path style="fill:#A9301C;" d="M502.023,185.022C471.25,78.168,372.757,0,256,0C114.615,0,0,114.615,0,256  c0,116.757,78.168,215.25,185.023,246.022L502.023,185.022z"/>
<path style="fill:#642A24;" d="M512,256c0-24.627-3.486-48.439-9.977-70.978L391.001,74L121,438l64.023,64.022  C207.561,508.514,231.373,512,256,512C397.385,512,512,397.385,512,256z"/>
<polygon style="fill:#E2573E;" points="391,74 256,74 216,256 256,438 391,438 "/>
<rect x="121" y="74" style="fill:#FF6A4F;" width="135" height="364"/>
<polygon style="fill:#D0EDFF;" points="371,94 256,94 206,256 256,418 307,418 321,368 371,354 "/>
<rect x="141" y="94" style="fill:#FFFFFF;" width="115" height="324"/>
<rect x="166" y="354" style="fill:#409DD9;" width="90" height="20"/>
<polygon style="fill:#A1DAFF;" points="307,354 371,354 307,418 "/>
<polygon style="fill:#3E84B3;" points="346,294 256,294 246,284 256,274 326,274 326,174 256,174 246,164 256,154 346,154 "/>
<g>
	<polygon style="fill:#409DD9;" points="256,294 166,294 166,154 256,154 256,174 186,174 186,274 256,274  "/>
	<rect x="206" y="194" style="fill:#409DD9;" width="20" height="20"/>
	<rect x="246" y="194" style="fill:#409DD9;" width="20" height="20"/>
</g>
<rect x="286" y="194" style="fill:#3E84B3;" width="20" height="20"/>
<g>
	<rect x="206" y="234" style="fill:#409DD9;" width="20" height="20"/>
	<rect x="246" y="234" style="fill:#409DD9;" width="20" height="20"/>
</g>
<g>
	<rect x="286" y="234" style="fill:#3E84B3;" width="20" height="20"/>
	<polygon style="fill:#3E84B3;" points="346,334 256,334 246,324 256,314 346,314  "/>
</g>
<rect x="166" y="314" style="fill:#409DD9;" width="90" height="20"/>
<polygon style="fill:#D1D3D7;" points="201,114 201,64 181,64 181,134 256,134 256,114 "/>
<polygon style="fill:#9DA0A4;" points="331,64 311,64 311,114 256,114 256,134 331,134 "/>
<g>
</g>
<g>
</g>
<g>
</g>
<g>
</g>
<g>
</g>
<g>
</g>
<g>
</g>
<g>
</g>
<g>
</g>
<g>
</g>
<g>
</g>
<g>
</g>
<g>
</g>
<g>
</g>
<g>
</g>
</svg>
