<?xml version="1.0" encoding="iso-8859-1"?>
<!-- Generator: Adobe Illustrator 19.0.0, SVG Export Plug-In . SVG Version: 6.00 Build 0)  -->
<svg xmlns="http://www.w3.org/2000/svg" xmlns:xlink="http://www.w3.org/1999/xlink" version="1.1" id="Layer_1" x="0px" y="0px" viewBox="0 0 512 512" style="enable-background:new 0 0 512 512;" xml:space="preserve">
<path style="fill:#71C8FF;" d="M504.883,195.883C477.835,83.507,376.677,0,256,0C114.615,0,0,114.615,0,256  c0,132.297,100.357,241.147,229.094,254.595L504.883,195.883z"/>
<path style="fill:#42B5FF;" d="M512,256c0-20.708-2.476-40.834-7.117-60.117L450,141l-34,34l-34-34l-34,34l-34-34l-34,34l-34-34  l-34,34l-34-34l-34,34l-34-34L74.645,247.066l78.611,78.611L47.75,329.25l181.345,181.345C237.938,511.518,246.912,512,256,512  C397.385,512,512,397.385,512,256z"/>
<path style="fill:#686D72;" d="M206,341c0,27.614,22.386,50,50,50V291C228.386,291,206,313.386,206,341z"/>
<path style="fill:#373B40;" d="M256,291v100c27.614,0,50-22.386,50-50S283.614,291,256,291z"/>
<path style="fill:#82868B;" d="M226,341c0,16.568,13.431,30,30,30v-60C239.432,311,226,324.431,226,341z"/>
<path style="fill:#686D72;" d="M256,311v60c16.569,0,30-13.432,30-30C286,324.431,272.569,311,256,311z"/>
<polygon style="fill:#4E5359;" points="476,231 256,231 241.858,293.426 476,251 "/>
<polygon style="fill:#686D72;" points="36,231 36,251 256,279.284 256,231 "/>
<path style="fill:#373B40;" d="M256,251l-34,40l34,50h180c22,0,40-18,40-40v-50H256z"/>
<g>
	<path style="fill:#4E5359;" d="M36,251v50c0,22,18,40,40,40h180v-90H36z"/>
	<rect x="416" y="181" style="fill:#4E5359;" width="20" height="60"/>
</g>
<path style="fill:#FFDC61;" d="M402,141c0,0,0,22.746,0,36c0,13.255,10.745,24,24,24s24-10.745,24-24c0-13.254,0-36,0-36H402z"/>
<rect x="416" y="281" style="fill:#D1D3D7;" width="20" height="20"/>
<rect x="348" y="181" style="fill:#4E5359;" width="20" height="60"/>
<path style="fill:#FFE57E;" d="M334,141c0,0,0,22.746,0,36c0,13.255,10.745,24,24,24s24-10.745,24-24c0-13.254,0-36,0-36H334z"/>
<rect x="348" y="281" style="fill:#D1D3D7;" width="20" height="20"/>
<rect x="280" y="181" style="fill:#4E5359;" width="20" height="60"/>
<path style="fill:#FFED9A;" d="M266,141c0,0,0,22.746,0,36c0,13.255,10.745,24,24,24s24-10.745,24-24c0-13.254,0-36,0-36H266z"/>
<rect x="280" y="281" style="fill:#D1D3D7;" width="20" height="20"/>
<rect x="212" y="181" style="fill:#686D72;" width="20" height="60"/>
<path style="fill:#FFF5B6;" d="M198,141c0,0,0,22.746,0,36c0,13.255,10.745,24,24,24s24-10.745,24-24c0-13.254,0-36,0-36H198z"/>
<rect x="212" y="281" style="fill:#FFFFFF;" width="20" height="20"/>
<rect x="144" y="181" style="fill:#686D72;" width="20" height="60"/>
<path style="fill:#FFFDD2;" d="M130,141c0,0,0,22.746,0,36c0,13.255,10.745,24,24,24s24-10.745,24-24c0-13.254,0-36,0-36H130z"/>
<rect x="144" y="281" style="fill:#FFFFFF;" width="20" height="20"/>
<rect x="76" y="181" style="fill:#686D72;" width="20" height="60"/>
<g>
	<path style="fill:#FFFFFF;" d="M62,141c0,0,0,22.746,0,36c0,13.255,10.745,24,24,24s24-10.745,24-24c0-13.254,0-36,0-36H62z"/>
	<rect x="76" y="281" style="fill:#FFFFFF;" width="20" height="20"/>
</g>
<g>
</g>
<g>
</g>
<g>
</g>
<g>
</g>
<g>
</g>
<g>
</g>
<g>
</g>
<g>
</g>
<g>
</g>
<g>
</g>
<g>
</g>
<g>
</g>
<g>
</g>
<g>
</g>
<g>
</g>
</svg>
