<?xml version="1.0" encoding="iso-8859-1"?>
<!-- Generator: Adobe Illustrator 19.0.0, SVG Export Plug-In . SVG Version: 6.00 Build 0)  -->
<svg xmlns="http://www.w3.org/2000/svg" xmlns:xlink="http://www.w3.org/1999/xlink" version="1.1" id="Layer_1" x="0px" y="0px" viewBox="0 0 512 512" style="enable-background:new 0 0 512 512;" xml:space="preserve">
<path style="fill:#4B767B;" d="M501.844,184.421C470.874,77.875,372.538,0,256,0C114.615,0,0,114.615,0,256  c0,135.101,104.656,245.748,237.318,255.318L501.844,184.421z"/>
<path style="fill:#373B40;" d="M512,256c0-24.847-3.553-48.862-10.156-71.579L391.711,74.289L111,325l121.25,121.25L211,485  l26.318,26.318C243.488,511.763,249.716,512,256,512C397.385,512,512,397.385,512,256z"/>
<polygon style="fill:#B7BABE;" points="226,433 256,485 301,485 301,433 "/>
<rect x="211" y="433" style="fill:#D1D3D7;" width="45" height="52"/>
<polygon style="fill:#9DA0A4;" points="226,313 256,465 321,465 321,445 311,435 321,425 321,405 311,395 321,385 321,365 311,355   321,345 321,313 "/>
<g>
	<polygon style="fill:#B7BABE;" points="190.999,313 190.999,345 200.999,355 190.999,365 190.999,385 200.999,395 190.999,405    190.999,425 200.999,435 190.999,445 190.999,465 256,465 256,313  "/>
	<polygon style="fill:#B7BABE;" points="226,243 256,325 401,325 401,243  "/>
</g>
<rect x="111" y="243" style="fill:#D1D3D7;" width="145" height="82"/>
<path style="fill:#FFED9A;" d="M321,45c-24.82,0-47.52,9.04-65,24.01l-50,132.995L256,285h165V145C421,89.77,376.229,45,321,45z"/>
<g>
	<path style="fill:#FFFDD2;" d="M191,45C135.77,45,91,89.77,91,145v140h165V69.01C238.52,54.04,215.82,45,191,45z"/>
	<path style="fill:#FFFDD2;" d="M321,65c-26.76,0-50.47,13.22-65,33.45l-50,103.555L256,285h145V145C401,100.89,365.109,65,321,65z"/>
</g>
<g>
	<path style="fill:#FFFFFF;" d="M191,65c-44.11,0-80,35.89-80,80v140h145V98.45C241.469,78.22,217.76,65,191,65z"/>
	<rect x="361" y="145" style="fill:#FFFFFF;" width="20" height="20"/>
	<rect x="321" y="105" style="fill:#FFFFFF;" width="20" height="20"/>
</g>
<polygon style="fill:#686D72;" points="321,385 321,405 256,405 246,395 256,385 "/>
<rect x="191" y="385" style="fill:#82868B;" width="65" height="20"/>
<polygon style="fill:#686D72;" points="321,345 321,365 256,365 246,355 256,345 "/>
<rect x="191" y="345" style="fill:#82868B;" width="65" height="20"/>
<polygon style="fill:#686D72;" points="321,425 321,445 256,445 246,435 256,425 "/>
<rect x="191" y="425" style="fill:#82868B;" width="65" height="20"/>
<g>
</g>
<g>
</g>
<g>
</g>
<g>
</g>
<g>
</g>
<g>
</g>
<g>
</g>
<g>
</g>
<g>
</g>
<g>
</g>
<g>
</g>
<g>
</g>
<g>
</g>
<g>
</g>
<g>
</g>
</svg>
