<?xml version="1.0" encoding="iso-8859-1"?>
<!-- Generator: Adobe Illustrator 19.0.0, SVG Export Plug-In . SVG Version: 6.00 Build 0)  -->
<svg xmlns="http://www.w3.org/2000/svg" xmlns:xlink="http://www.w3.org/1999/xlink" version="1.1" id="Layer_1" x="0px" y="0px" viewBox="0 0 512 512" style="enable-background:new 0 0 512 512;" xml:space="preserve">
<path style="fill:#FFB59D;" d="M499.946,178.196C467.015,74.856,370.256,0,256,0C114.615,0,0,114.615,0,256  c0,108.686,70.714,209.694,178.196,243.946L499.946,178.196z"/>
<path style="fill:#FF9076;" d="M512,256c0-27.129-4.234-53.267-12.054-77.804L395.125,73.375l-278.25,365.25l61.321,61.321  C202.734,507.766,228.871,512,256,512C397.385,512,512,397.385,512,256z"/>
<path style="fill:#D0EDFF;" d="M381,67.5H256L192.707,256L256,444.5h125c11,0,20-9,20-20v-337C401,76.5,392,67.5,381,67.5z"/>
<path style="fill:#DAFFFB;" d="M131,67.5c-11,0-20,9-20,20v337c0,11,9,20,20,20h125v-377H131z"/>
<polygon style="fill:#A1DAFF;" points="381,364.5 381,384.5 371,394.5 381,404.5 381,424.5 256,424.5 226,334.5 "/>
<polygon style="fill:#B6FFF6;" points="256,334.5 256,424.5 131,424.5 131,404.5 141,394.5 131,384.5 131,364.5 "/>
<polygon style="fill:#54B5B7;" points="381,87.5 381,364.5 256,364.5 201.437,226 256,87.5 "/>
<rect x="131" y="87.5" style="fill:#5FD2D0;" width="125" height="277"/>
<path style="fill:#78E9E1;" d="M256,285.5c8.284,0,15,6.716,15,15v44h9c24.301,0,44-19.699,44-44v-15l-34-10L256,285.5z"/>
<g>
	<polygon style="fill:#97F4EC;" points="324,226.5 236,226.5 256,285.5 324,285.5  "/>
	<path style="fill:#97F4EC;" d="M188,300.5c0,24.301,19.699,44,44,44h9v-44c0-8.284,6.716-15,15-15l-34-20l-34,20V300.5z"/>
</g>
<rect x="188" y="226.5" style="fill:#B6FFF6;" width="68" height="59"/>
<path style="fill:#97F4EC;" d="M292,107.5c-13.833,0-26.446,5.208-36,13.761l-30,72.119l30,72.119h36c29.823,0,54-24.177,54-54v-50  C346,131.677,321.824,107.5,292,107.5z"/>
<path style="fill:#B6FFF6;" d="M220,107.5c-29.823,0-54,24.177-54,54v50c0,29.823,24.177,54,54,54h36V121.261  C246.446,112.708,233.833,107.5,220,107.5z"/>
<path style="fill:#DAFFFB;" d="M292,127.5c-8.373,0-16.42,3.076-22.659,8.662L256,148.107l-20,48.697l20,48.697h36  c18.748,0,34-15.252,34-34v-50C326,142.752,310.748,127.5,292,127.5z"/>
<path style="fill:#FFFFFF;" d="M256,148.108l-13.341-11.945c-6.238-5.586-14.285-8.662-22.659-8.662c-18.748,0-34,15.252-34,34v50  c0,18.748,15.252,34,34,34h36C256,245.5,256,148.107,256,148.108z"/>
<polygon style="fill:#42B5FF;" points="291,384.5 291,404.5 256,404.5 241.437,394.5 256,384.5 "/>
<rect x="221" y="384.5" style="fill:#78E9E1;" width="35" height="20"/>
<polygon style="fill:#FF9076;" points="291,245.5 291,265.5 256,265.5 241.437,255.5 256,245.5 "/>
<rect x="221" y="245.5" style="fill:#FFB59D;" width="35" height="20"/>
<polygon style="fill:#5FD2D0;" points="291,205.5 291,225.5 256,225.5 241.437,215.5 256,205.5 "/>
<rect x="221" y="205.5" style="fill:#78E9E1;" width="35" height="20"/>
<polygon style="fill:#42B5FF;" points="291,165.5 291,185.5 256,185.5 241.437,175.5 256,165.5 "/>
<rect x="221" y="165.5" style="fill:#71C8FF;" width="35" height="20"/>
<polygon style="fill:#78E9E1;" points="201,384.5 201,404.5 166,404.5 151.437,394.5 166,384.5 "/>
<rect x="131" y="384.5" style="fill:#97F4EC;" width="35" height="20"/>
<polygon style="fill:#42B5FF;" points="381,384.5 381,404.5 346,404.5 331.437,394.5 346,384.5 "/>
<rect x="311" y="384.5" style="fill:#71C8FF;" width="35" height="20"/>
<g>
</g>
<g>
</g>
<g>
</g>
<g>
</g>
<g>
</g>
<g>
</g>
<g>
</g>
<g>
</g>
<g>
</g>
<g>
</g>
<g>
</g>
<g>
</g>
<g>
</g>
<g>
</g>
<g>
</g>
</svg>
