<?xml version="1.0" encoding="iso-8859-1"?>
<!-- Generator: Adobe Illustrator 19.0.0, SVG Export Plug-In . SVG Version: 6.00 Build 0)  -->
<svg version="1.1" id="Capa_1" xmlns="http://www.w3.org/2000/svg" xmlns:xlink="http://www.w3.org/1999/xlink" x="0px" y="0px"
	 viewBox="0 0 480 480" style="enable-background:new 0 0 480 480;" xml:space="preserve">
<path style="fill:#5F79BA;" d="M152,416h256v48H152V416z"/>
<path style="fill:#FCF05A;" d="M40,80h400c17.673,0,32,14.327,32,32v272c0,17.673-14.327,32-32,32H40c-17.673,0-32-14.327-32-32V112
	C8,94.327,22.327,80,40,80z"/>
<g>
	<path style="fill:#FDBD40;" d="M80,112L80,112c22.091,0,40,17.909,40,40v176c0,22.091-17.909,40-40,40l0,0
		c-22.091,0-40-17.909-40-40V152C40,129.909,57.909,112,80,112z"/>
	<path style="fill:#FDBD40;" d="M152,144h240v48H152V144z"/>
	<circle style="fill:#FDBD40;" cx="216" cy="240" r="16"/>
	<circle style="fill:#FDBD40;" cx="216" cy="304" r="16"/>
	<circle style="fill:#FDBD40;" cx="216" cy="368" r="16"/>
	<circle style="fill:#FDBD40;" cx="280" cy="240" r="16"/>
	<circle style="fill:#FDBD40;" cx="280" cy="304" r="16"/>
	<circle style="fill:#FDBD40;" cx="280" cy="368" r="16"/>
	<circle style="fill:#FDBD40;" cx="344" cy="240" r="16"/>
	<circle style="fill:#FDBD40;" cx="344" cy="304" r="16"/>
	<circle style="fill:#FDBD40;" cx="344" cy="368" r="16"/>
	<path style="fill:#FDBD40;" d="M440,248c-4.418,0-8-3.582-8-8v-80c0-4.418,3.582-8,8-8s8,3.582,8,8v80
		C448,244.418,444.418,248,440,248z"/>
</g>
<path style="fill:#5F79BA;" d="M408,304h64v64h-64V304z"/>
<path style="fill:#FDBD40;" d="M472,264h-64c-4.418,0-8,3.582-8,8s3.582,8,8,8h64c4.418,0,8-3.582,8-8S476.418,264,472,264z"/>
<path style="fill:#5F79BA;" d="M152,16h256v96H152V16z"/>
<g>
	<path style="fill:#FCF05A;" d="M176,40h16v16h-16V40z"/>
	<path style="fill:#FCF05A;" d="M208,40h16v16h-16V40z"/>
	<path style="fill:#FCF05A;" d="M240,40h16v16h-16V40z"/>
</g>
<path d="M176,40h16v16h-16V40z"/>
<path d="M208,40h16v16h-16V40z"/>
<path d="M240,40h16v16h-16V40z"/>
<path d="M80,104c-26.499,0.026-47.974,21.501-48,48v176c0,26.51,21.49,48,48,48s48-21.49,48-48V152
	C127.974,125.501,106.499,104.026,80,104z M112,328c0,17.673-14.327,32-32,32s-32-14.327-32-32V152c0-17.673,14.327-32,32-32
	s32,14.327,32,32V328z"/>
<path d="M440,72h-24V16c0-4.418-3.582-8-8-8H152c-4.418,0-8,3.582-8,8v56H40C17.92,72.026,0.026,89.92,0,112v272
	c0.026,22.08,17.92,39.974,40,40h104v40c0,4.418,3.582,8,8,8h256c4.418,0,8-3.582,8-8v-40h24c22.08-0.026,39.974-17.92,40-40V112
	C479.974,89.92,462.08,72.026,440,72z M160,24h240v80H160V24z M400,456H160v-32h240V456z M464,360h-48v-48h48V360z M464,264h-56
	c-4.418,0-8,3.582-8,8s3.582,8,8,8h56v16h-56c-4.418,0-8,3.582-8,8v64c0,4.418,3.582,8,8,8h56v8c0,13.255-10.745,24-24,24H40
	c-13.255,0-24-10.745-24-24V112c0-13.255,10.745-24,24-24h104v24c0,4.418,3.582,8,8,8h256c4.418,0,8-3.582,8-8V88h24
	c13.255,0,24,10.745,24,24V264z"/>
<path d="M392,136H152c-4.418,0-8,3.582-8,8v48c0,4.418,3.582,8,8,8h240c4.418,0,8-3.582,8-8v-48C400,139.582,396.418,136,392,136z
	 M384,184H160v-32h224V184z"/>
<path d="M216,216c-13.255,0-24,10.745-24,24c0,13.255,10.745,24,24,24s24-10.745,24-24C240,226.745,229.255,216,216,216z M216,248
	c-4.418,0-8-3.582-8-8s3.582-8,8-8s8,3.582,8,8S220.418,248,216,248z"/>
<path d="M216,280c-13.255,0-24,10.745-24,24s10.745,24,24,24s24-10.745,24-24S229.255,280,216,280z M216,312c-4.418,0-8-3.582-8-8
	s3.582-8,8-8s8,3.582,8,8S220.418,312,216,312z"/>
<path d="M216,344c-13.255,0-24,10.745-24,24s10.745,24,24,24s24-10.745,24-24S229.255,344,216,344z M216,376c-4.418,0-8-3.582-8-8
	s3.582-8,8-8s8,3.582,8,8S220.418,376,216,376z"/>
<path d="M280,216c-13.255,0-24,10.745-24,24c0,13.255,10.745,24,24,24s24-10.745,24-24C304,226.745,293.255,216,280,216z M280,248
	c-4.418,0-8-3.582-8-8s3.582-8,8-8s8,3.582,8,8S284.418,248,280,248z"/>
<path d="M280,280c-13.255,0-24,10.745-24,24s10.745,24,24,24s24-10.745,24-24S293.255,280,280,280z M280,312c-4.418,0-8-3.582-8-8
	s3.582-8,8-8s8,3.582,8,8S284.418,312,280,312z"/>
<path d="M280,344c-13.255,0-24,10.745-24,24s10.745,24,24,24s24-10.745,24-24S293.255,344,280,344z M280,376c-4.418,0-8-3.582-8-8
	s3.582-8,8-8s8,3.582,8,8S284.418,376,280,376z"/>
<path d="M344,216c-13.255,0-24,10.745-24,24c0,13.255,10.745,24,24,24s24-10.745,24-24C368,226.745,357.255,216,344,216z M344,248
	c-4.418,0-8-3.582-8-8s3.582-8,8-8s8,3.582,8,8S348.418,248,344,248z"/>
<path d="M344,280c-13.255,0-24,10.745-24,24s10.745,24,24,24s24-10.745,24-24S357.255,280,344,280z M344,312c-4.418,0-8-3.582-8-8
	s3.582-8,8-8s8,3.582,8,8S348.418,312,344,312z"/>
<path d="M344,344c-13.255,0-24,10.745-24,24s10.745,24,24,24s24-10.745,24-24S357.255,344,344,344z M344,376c-4.418,0-8-3.582-8-8
	s3.582-8,8-8s8,3.582,8,8S348.418,376,344,376z"/>
<path d="M440,152c-4.418,0-8,3.582-8,8v80c0,4.418,3.582,8,8,8s8-3.582,8-8v-80C448,155.582,444.418,152,440,152z"/>
<g>
</g>
<g>
</g>
<g>
</g>
<g>
</g>
<g>
</g>
<g>
</g>
<g>
</g>
<g>
</g>
<g>
</g>
<g>
</g>
<g>
</g>
<g>
</g>
<g>
</g>
<g>
</g>
<g>
</g>
</svg>
