<?xml version="1.0" encoding="iso-8859-1"?>
<!-- Generator: Adobe Illustrator 19.0.0, SVG Export Plug-In . SVG Version: 6.00 Build 0)  -->
<svg version="1.1" id="Capa_1" xmlns="http://www.w3.org/2000/svg" xmlns:xlink="http://www.w3.org/1999/xlink" x="0px" y="0px"
	 viewBox="0 0 496.968 496.968" style="enable-background:new 0 0 496.968 496.968;" xml:space="preserve">
<path style="fill:#ECECEC;" d="M208.484,8.224l200,48V181.72c0,132.784-78.456,253.024-200,306.504l0,0l0,0l0,0l0,0
	c-121.544-53.48-200-173.72-200-306.504V56.224L208.484,8.224z"/>
<path style="fill:#FCD770;" d="M208.484,452.896c-102.512-50.96-168-155.88-168-271.168V88.224l168-40l168,40v93.504
	C376.484,297.016,310.996,401.936,208.484,452.896z"/>
<path style="fill:#ECECEC;" d="M324.46,184.224c11.36,0,22.4,3.352,32.072,9.312c5.712,3.52,12.832,6.688,19.952,6.688
	s14.24-3.168,19.952-6.688c9.68-5.96,20.712-9.312,32.072-9.312l0,0c33.128,0,59.976,26.848,59.976,59.976v9.832
	c0,27.016-10.736,52.928-29.84,72.04l0,0c-11.92,11.92-20.696,26.616-25.544,42.76l-13.68,45.592c-1.744,5.816-7.096,9.8-13.176,9.8
	l0,0c-7.6,0-13.76-6.16-13.76-13.76v-82.24c0-8.84-7.16-16-16-16l0,0c-8.84,0-16,7.16-16,16v82.24c0,7.6-6.16,13.76-13.76,13.76l0,0
	c-6.08,0-11.432-3.984-13.184-9.808l-13.68-45.592c-4.848-16.152-13.624-30.84-25.544-42.76l0,0
	c-19.096-19.104-29.832-45.016-29.832-72.04v-9.832C264.484,211.072,291.332,184.224,324.46,184.224L324.46,184.224z"/>
<path style="fill:#B6C1CE;" d="M376.484,288.224c-44.136,0-83.752-9.464-111.52-24.48c2.248,23.448,12.56,45.52,29.36,62.32
	c11.92,11.92,20.696,26.616,25.544,42.76l13.68,45.592c1.744,5.824,7.096,9.808,13.176,9.808c7.6,0,13.76-6.16,13.76-13.76v-82.24
	c0-8.84,7.16-16,16-16c8.84,0,16,7.16,16,16v82.24c0,7.6,6.16,13.76,13.76,13.76c6.08,0,11.432-3.984,13.184-9.808l13.68-45.592
	c4.848-16.144,13.624-30.84,25.544-42.76c16.8-16.8,27.112-38.872,29.36-62.32C460.236,278.76,420.62,288.224,376.484,288.224z"/>
<path d="M171.556,401.392l9.856-12.608c-32.04-25.064-58.192-57.768-75.64-94.584l-14.464,6.856
	C109.82,340.096,137.564,374.792,171.556,401.392z"/>
<path d="M95.596,269.552l-15.08,5.344c1.64,4.624,3.4,9.2,5.28,13.728l14.784-6.128C98.804,278.224,97.14,273.912,95.596,269.552z"
	/>
<path d="M341.18,212.2l-8.872,13.312c14.648,9.76,29.512,14.712,44.176,14.712c14.672,0,29.536-4.952,44.184-14.72l-8.872-13.312
	C387.844,228.16,365.124,228.152,341.18,212.2z"/>
<path d="M428.508,176.224c-4.032,0-8.048,0.504-12.024,1.24V49.92L208.484,0l-208,49.92v131.808
	c0,135.904,80.376,259.088,204.776,313.824l3.224,1.416l3.224-1.424c42.8-18.824,81.728-46.752,113.504-81.056l0.664,2.224
	c2.784,9.28,11.16,15.512,20.848,15.512c12,0,21.76-9.76,21.76-21.76v-82.24c0-4.416,3.592-8,8-8c4.408,0,8,3.584,8,8v82.24
	c0,12,9.76,21.76,21.76,21.76c9.68,0,18.056-6.232,20.84-15.504l13.68-45.592c4.448-14.832,12.584-28.456,23.528-39.408
	c20.76-20.752,32.192-48.336,32.192-77.688V244.2C496.484,206.72,465.988,176.224,428.508,176.224z M208.484,479.464
	c-116.752-52.88-192-169.36-192-297.744V62.528l192-46.08l192,46.08v119.848c-2.808,1.272-5.568,2.704-8.24,4.344
	c-2.792,1.72-5.48,3.024-8.032,3.944c0.088-2.984,0.272-5.952,0.272-8.936v-5.504h-16v5.504c0,2.912-0.176,5.808-0.264,8.72
	c-2.392-0.912-4.896-2.12-7.496-3.72c-11.152-6.872-23.688-10.504-36.264-10.504c-37.48,0-67.976,30.496-67.976,67.976v9.832
	c0,0.304,0.04,0.6,0.04,0.896l-40.04,14.016V55.832l152,38.608v65.784h16V82.008L210.452,37.792l-1.968-0.504l-176,44.72v99.72
	c0,118.816,66.072,225.464,172.44,278.336l3.56,1.768l3.56-1.776c39.224-19.504,74.32-47.688,102.272-81.856l5.512,18.384
	C289.228,431.648,250.908,460.24,208.484,479.464z M48.484,181.728v-87.28l152-38.608v213.104L51.132,216.672l-0.36,1.024
	C49.34,205.856,48.484,193.872,48.484,181.728z M200.484,285.904v153.568C122.02,396.096,68.788,321.016,53.3,234.392
	L200.484,285.904z M216.484,285.896l41.48-14.52c3.592,22.744,14.104,43.744,30.704,60.336c8.192,8.2,14.808,17.896,19.488,28.472
	l-1.976,2.784c-24.28,31.168-55.136,57.376-89.688,76.56V285.896H216.484z M480.484,254.032c0,25.08-9.768,48.648-27.496,66.376
	c-12.816,12.824-22.336,28.768-27.544,46.128l-13.68,45.592c-0.736,2.448-2.952,4.096-5.52,4.096c-3.176,0-5.76-2.584-5.76-5.76
	v-82.24c0-13.232-10.768-24-24-24s-24,10.768-24,24v82.24c0,3.168-2.584,5.76-5.76,5.76c-2.56,0-4.784-1.648-5.512-4.104
	l-13.68-45.592c-5.208-17.36-14.728-33.304-27.544-46.128c-17.736-17.72-27.504-41.296-27.504-66.368V244.2
	c0-28.656,23.32-51.976,51.976-51.976c9.616,0,19.248,2.816,27.88,8.128c16.976,10.456,31.32,10.456,48.296,0
	c8.624-5.312,18.264-8.128,27.872-8.128c28.656,0,51.976,23.32,51.976,51.976V254.032z"/>
<g>
</g>
<g>
</g>
<g>
</g>
<g>
</g>
<g>
</g>
<g>
</g>
<g>
</g>
<g>
</g>
<g>
</g>
<g>
</g>
<g>
</g>
<g>
</g>
<g>
</g>
<g>
</g>
<g>
</g>
</svg>
