<?xml version="1.0" encoding="iso-8859-1"?>
<!-- Generator: Adobe Illustrator 19.0.0, SVG Export Plug-In . SVG Version: 6.00 Build 0)  -->
<svg xmlns="http://www.w3.org/2000/svg" xmlns:xlink="http://www.w3.org/1999/xlink" version="1.1" id="Layer_1" x="0px" y="0px" viewBox="0 0 512 512" style="enable-background:new 0 0 512 512;" xml:space="preserve">
<path style="fill:#FF8492;" d="M511.723,244.301C505.606,108.348,393.463,0,256,0C114.615,0,0,114.615,0,256  c0,136.908,107.473,248.714,242.656,255.656L511.723,244.301z"/>
<path style="fill:#FF6A4F;" d="M512,256c0-3.922-0.103-7.819-0.277-11.699L326.711,59.289L211,480l31.656,31.656  c4.42,0.227,8.868,0.344,13.344,0.344C397.385,512,512,397.385,512,256z"/>
<polygon style="fill:#FF1E38;" points="301,450 256,450 232.667,465 256,480 301,480 "/>
<rect x="211" y="450" style="fill:#FF4056;" width="45" height="30"/>
<polygon style="fill:#DAFFFB;" points="291,130 232.667,130 256,450.2 301,450.2 "/>
<polygon style="fill:#FFFFFF;" points="221,130 211,450.2 256,450.2 256,130 "/>
<polygon style="fill:#B6FFF6;" points="311,400 256,400 232.667,415 256,430 311,430 "/>
<g>
	<rect x="201" y="400" style="fill:#DAFFFB;" width="55" height="30"/>
	<path style="fill:#DAFFFB;" d="M256,30l-50,100l50,100c55.228,0,100-44.771,100-100S311.228,30,256,30z"/>
</g>
<path style="fill:#FFFFFF;" d="M156,130c0,55.229,44.772,100,100,100V30C200.772,30,156,74.771,156,130z"/>
<path style="fill:#5FD2D0;" d="M336,130c0-22.092-8.954-42.092-23.432-56.568L216,130l40,80c22.091,0,42.091-8.955,56.568-23.432  L336,130z"/>
<g>
	<path style="fill:#78E9E1;" d="M312.568,73.432C298.091,58.955,278.091,50,256,50l-20,40l20,40L312.568,73.432z"/>
	<path style="fill:#78E9E1;" d="M256,130l56.568,56.568C327.046,172.092,336,152.092,336,130H256z"/>
</g>
<path style="fill:#B6FFF6;" d="M199.432,73.432L176,130c0,22.092,8.954,42.092,23.432,56.568L256,170V50  C233.909,50,213.909,58.955,199.432,73.432z"/>
<g>
	<path style="fill:#78E9E1;" d="M199.432,186.568C213.909,201.045,233.909,210,256,210v-80L199.432,186.568z"/>
	<path style="fill:#78E9E1;" d="M199.432,73.432C184.954,87.908,176,107.908,176,130h80L199.432,73.432z"/>
</g>
<path style="fill:#B6FFF6;" d="M256,95l-17.5,35l17.5,35c19.33,0,35-15.67,35-35S275.33,95,256,95z"/>
<path style="fill:#DAFFFB;" d="M221,130c0,19.33,15.67,35,35,35V95C236.67,95,221,110.67,221,130z"/>
<g>
</g>
<g>
</g>
<g>
</g>
<g>
</g>
<g>
</g>
<g>
</g>
<g>
</g>
<g>
</g>
<g>
</g>
<g>
</g>
<g>
</g>
<g>
</g>
<g>
</g>
<g>
</g>
<g>
</g>
</svg>
