<?xml version="1.0" encoding="iso-8859-1"?>
<!-- Generator: Adobe Illustrator 19.0.0, SVG Export Plug-In . SVG Version: 6.00 Build 0)  -->
<svg xmlns="http://www.w3.org/2000/svg" xmlns:xlink="http://www.w3.org/1999/xlink" version="1.1" id="Layer_1" x="0px" y="0px" viewBox="0 0 512 512" style="enable-background:new 0 0 512 512;" xml:space="preserve">
<path style="fill:#FF6A4F;" d="M501.843,184.421C470.874,77.875,372.538,0,256,0C114.615,0,0,114.615,0,256  c0,126.834,92.244,232.106,213.3,252.435L501.843,184.421z"/>
<path style="fill:#FF4056;" d="M512,256c0-24.847-3.553-48.862-10.156-71.579L391.711,74.289L159.432,454.567l53.868,53.867  C227.188,510.767,241.449,512,256,512C397.385,512,512,397.385,512,256z"/>
<path style="fill:#FFED9A;" d="M376,293v82l-50,30l-50-30c0-11.05-8.95-20-20-20l-30-62H376z"/>
<path style="fill:#FFE57E;" d="M376,375v23c0,44.18-35.82,80-80,80c-11.05,0-20-8.95-20-20v-83H376z"/>
<path style="fill:#FFFDD2;" d="M136,375v-82h120v62c-11.05,0-20,8.95-20,20l-52,30L136,375z"/>
<path style="fill:#FFF5B6;" d="M236,375v83c0,11.05-8.95,20-20,20c-44.18,0-80-35.82-80-80v-23H236z"/>
<path style="fill:#FFED9A;" d="M421,145v90c0,55.23-44.77,100-100,100h-65l-50-132.995L256,69.01C273.48,54.04,296.18,45,321,45  C376.23,45,421,89.77,421,145z"/>
<g>
	<path style="fill:#FFFDD2;" d="M256,69.01V335h-65c-55.23,0-100-44.77-100-100v-90c0-55.23,44.77-100,100-100   C215.82,45,238.52,54.04,256,69.01z"/>
	<path style="fill:#FFFDD2;" d="M401,145v90c0,44.11-35.89,80-80,80h-65l-50-112.995L256,98.45C270.53,78.22,294.24,65,321,65   C365.11,65,401,100.89,401,145z"/>
</g>
<g>
	<path style="fill:#FFFFFF;" d="M256,98.45V315h-65c-44.11,0-80-35.89-80-80v-90c0-44.11,35.89-80,80-80   C217.76,65,241.47,78.22,256,98.45z"/>
	<rect x="361" y="145" style="fill:#FFFFFF;" width="20" height="20"/>
	<rect x="321" y="105" style="fill:#FFFFFF;" width="20" height="20"/>
</g>
<rect x="186" y="145" style="fill:#FF6A4F;" width="20" height="45"/>
<rect x="306" y="145" style="fill:#C6432D;" width="20" height="45"/>
<path style="fill:#FF4056;" d="M256,235l-10-10l10-10c5.514,0,10-4.486,10-10v-15h20v15C286,221.542,272.542,235,256,235z"/>
<path style="fill:#FF6A4F;" d="M256,235c-16.542,0-30-13.458-30-30v-15h20v15c0,5.514,4.486,10,10,10V235z"/>
<circle style="fill:#FFED9A;" cx="153.5" cy="212.5" r="22.5"/>
<circle style="fill:#FFE57E;" cx="358.5" cy="212.5" r="22.5"/>
<g>
</g>
<g>
</g>
<g>
</g>
<g>
</g>
<g>
</g>
<g>
</g>
<g>
</g>
<g>
</g>
<g>
</g>
<g>
</g>
<g>
</g>
<g>
</g>
<g>
</g>
<g>
</g>
<g>
</g>
</svg>
