<?xml version="1.0" encoding="iso-8859-1"?>
<!-- Generator: Adobe Illustrator 19.0.0, SVG Export Plug-In . SVG Version: 6.00 Build 0)  -->
<svg xmlns="http://www.w3.org/2000/svg" xmlns:xlink="http://www.w3.org/1999/xlink" version="1.1" id="Layer_1" x="0px" y="0px" viewBox="0 0 512 512" style="enable-background:new 0 0 512 512;" xml:space="preserve">
<path style="fill:#FFCDAF;" d="M506.826,204.546C483.008,87.822,379.761,0,256,0C114.615,0,0,114.615,0,256  c0,115.396,76.357,212.946,181.298,244.914L506.826,204.546z"/>
<path style="fill:#FFB59D;" d="M96.192,415.808l85.106,85.106C204.932,508.114,230.011,512,256,512c141.385,0,256-114.615,256-256  c0-17.624-1.783-34.832-5.174-51.454L374.64,72.36L96.192,415.808z"/>
<path style="fill:#E2573E;" d="M201,286l269.95,40C441.48,416.56,356.39,482,256,482L201,286z"/>
<g>
	<path style="fill:#FF6A4F;" d="M256,286v196c-100.39,0-185.48-65.44-214.95-156L256,286z"/>
	<path style="fill:#FF6A4F;" d="M236,186l165,70h81c0,24.43-3.88,47.96-11.05,70H236V186z"/>
</g>
<path style="fill:#FF9076;" d="M256,186v140H41.05C33.88,303.96,30,280.43,30,256h81L256,186z"/>
<polygon style="fill:#D1D3D7;" points="226,394 256,446 291,446 291,394 "/>
<rect x="221" y="394" style="fill:#EBEDF0;" width="35" height="52"/>
<polygon style="fill:#B7BABE;" points="216,274 246,426 311,426 311,406 301,396 311,386 311,366 301,356 311,346 311,326 301,316   311,306 311,274 "/>
<g>
	<polygon style="fill:#D1D3D7;" points="201,274 201,306 211,316 201,326 201,346 211,356 201,366 201,386.001 211,396 201,406    201,426 256,426 256,274  "/>
	<polygon style="fill:#D1D3D7;" points="226,204 256,286 381,286 381,204  "/>
</g>
<rect x="131" y="204" style="fill:#EBEDF0;" width="125" height="82"/>
<polygon style="fill:#82868B;" points="311,346 311,366 256,366 246,356 256,346 "/>
<rect x="201" y="346" style="fill:#9DA0A4;" width="55" height="20"/>
<polygon style="fill:#82868B;" points="311,306 311,326 256,326 246,316 256,306 "/>
<rect x="201" y="306" style="fill:#9DA0A4;" width="55" height="20"/>
<polygon style="fill:#82868B;" points="311,386 311,406 256,406 246,396 256,386 "/>
<rect x="201" y="386" style="fill:#9DA0A4;" width="55" height="20"/>
<path style="fill:#FFED9A;" d="M311,46c-20.714,0-39.79,7.002-55,18.763l-40,113.626L381,256h20V136C401,86.294,360.706,46,311,46z"/>
<path style="fill:#FFF5B6;" d="M201,46c-49.706,0-90,40.294-90,90v120h20l125-20V64.762C240.79,53.002,221.714,46,201,46z"/>
<path style="fill:#FFFDD2;" d="M311,66c-22.294,0-42.172,10.489-55,26.777l-40,85.612L256,256h125V136C381,97.402,349.599,66,311,66  z"/>
<path style="fill:#FFFFFF;" d="M201,66c-38.599,0-70,31.402-70,70v120h125V92.776C243.172,76.489,223.294,66,201,66z"/>
<g>
</g>
<g>
</g>
<g>
</g>
<g>
</g>
<g>
</g>
<g>
</g>
<g>
</g>
<g>
</g>
<g>
</g>
<g>
</g>
<g>
</g>
<g>
</g>
<g>
</g>
<g>
</g>
<g>
</g>
</svg>
