<?xml version="1.0" encoding="iso-8859-1"?>
<!-- Generator: Adobe Illustrator 19.0.0, SVG Export Plug-In . SVG Version: 6.00 Build 0)  -->
<svg xmlns="http://www.w3.org/2000/svg" xmlns:xlink="http://www.w3.org/1999/xlink" version="1.1" id="Layer_1" x="0px" y="0px" viewBox="0 0 512 512" style="enable-background:new 0 0 512 512;" xml:space="preserve">
<path style="fill:#686D72;" d="M508.264,212.265C487.51,91.718,382.473,0,256,0C114.615,0,0,114.615,0,256  c0,115.395,76.356,212.945,181.296,244.914L508.264,212.265z"/>
<path style="fill:#373B40;" d="M512,256c0-14.912-1.29-29.521-3.736-43.735l-46.266-46.266L96.189,415.807l85.107,85.107  C204.931,508.114,230.01,512,256,512C397.385,512,512,397.385,512,256z"/>
<path style="fill:#E2573E;" d="M196,347.5l256.62,20C413.77,435.88,340.27,482,256,482L196,347.5z"/>
<g>
	<path style="fill:#FF6A4F;" d="M256,347.5V482c-84.27,0-157.77-46.12-196.62-114.5L256,347.5z"/>
	<path style="fill:#FF6A4F;" d="M216,276l266-20c0,40.55-10.68,78.6-29.38,111.5H256L216,276z"/>
</g>
<g>
	<path style="fill:#FF9076;" d="M256,276v91.5H59.38C40.68,334.6,30,296.55,30,256L256,276z"/>
	<path style="fill:#FF9076;" d="M225.997,255.999l30,49.522c13.017,13.532,31.285,21.978,51.5,21.978s38.483-8.446,51.5-21.978   c13.017,13.532,31.285,21.978,51.5,21.978c39.425,0,71.5-32.075,71.5-71.5H225.997z"/>
</g>
<path style="fill:#FFB59D;" d="M255.997,255.999h-226c0,39.425,32.075,71.5,71.5,71.5c20.215,0,38.483-8.446,51.5-21.978  c13.017,13.532,31.285,21.978,51.5,21.978s38.483-8.446,51.5-21.978V255.999z"/>
<path style="fill:#FFF5B6;" d="M410.497,307.499c-28.443,0-51.5-23.057-51.5-51.5l-40-45l40-45h103c0,0,0,61.557,0,90  S438.94,307.499,410.497,307.499z"/>
<path style="fill:#FFFFFF;" d="M307.497,307.499c-28.443,0-51.5-23.057-51.5-51.5l-40-45l40-45h103c0,0,0,61.557,0,90  S335.94,307.499,307.497,307.499z"/>
<path style="fill:#FFF5B6;" d="M204.497,307.499c-28.443,0-51.5-23.057-51.5-51.5l-40-45l40-45h103c0,0,0,61.557,0,90  S232.94,307.499,204.497,307.499z"/>
<path style="fill:#FFFFFF;" d="M101.497,307.499c-28.443,0-51.5-23.057-51.5-51.5s0-90,0-90h103c0,0,0,61.557,0,90  S129.94,307.499,101.497,307.499z"/>
<polygon style="fill:#9DA0A4;" points="131.5,187.5 131.5,247.5 101.5,247.5 80.57,217.5 101.5,187.5 "/>
<rect x="71.5" y="187.5" style="fill:#B7BABE;" width="30" height="60"/>
<polygon style="fill:#686D72;" points="234.497,187.5 234.497,247.5 204.497,247.5 183.567,217.5 204.497,187.5 "/>
<g>
	<rect x="174.5" y="187.5" style="fill:#9DA0A4;" width="30" height="60"/>
	<polygon style="fill:#9DA0A4;" points="337.497,187.5 337.497,247.5 307.497,247.5 286.567,217.5 307.497,187.5  "/>
</g>
<rect x="277.5" y="187.5" style="fill:#B7BABE;" width="30" height="60"/>
<polygon style="fill:#686D72;" points="440.494,187.5 440.494,247.5 410.494,247.5 389.564,217.5 410.494,187.5 "/>
<rect x="380.49" y="187.5" style="fill:#9DA0A4;" width="30" height="60"/>
<polygon style="fill:#B7BABE;" points="481.997,207.5 481.997,227.5 256,227.5 246,217.5 256,207.5 "/>
<rect x="29.997" y="207.5" style="fill:#D1D3D7;" width="226" height="20"/>
<g>
</g>
<g>
</g>
<g>
</g>
<g>
</g>
<g>
</g>
<g>
</g>
<g>
</g>
<g>
</g>
<g>
</g>
<g>
</g>
<g>
</g>
<g>
</g>
<g>
</g>
<g>
</g>
<g>
</g>
</svg>
