<?xml version="1.0" encoding="iso-8859-1"?>
<!-- Generator: Adobe Illustrator 19.0.0, SVG Export Plug-In . SVG Version: 6.00 Build 0)  -->
<svg xmlns="http://www.w3.org/2000/svg" xmlns:xlink="http://www.w3.org/1999/xlink" version="1.1" id="Layer_1" x="0px" y="0px" viewBox="0 0 512 512" style="enable-background:new 0 0 512 512;" xml:space="preserve">
<path style="fill:#FF6274;" d="M502.427,186.427C472.116,78.853,373.269,0,256,0C114.615,0,0,114.615,0,256  c0,133.946,102.876,243.846,233.923,255.042L502.427,186.427z"/>
<path style="fill:#FF1E38;" d="M512,256c0-24.116-3.34-47.45-9.574-69.573L442,126L135.814,412.934l98.108,98.108  C241.201,511.664,248.561,512,256,512C397.385,512,512,397.385,512,256z"/>
<path style="fill:#B6FFF6;" d="M256,58l-80,198l80,226c11.626-3.05,51.281-15.454,90.838-44.083  C390.25,406.505,442,347.884,442,246.982V126C349,126,349,58,256,58z"/>
<path style="fill:#FFFFFF;" d="M70,126v120.981c0,100.915,51.766,159.538,95.21,190.95C204.605,466.465,244.339,478.927,256,482V58  C163,58,163,126,70,126z"/>
<path style="fill:#FF6274;" d="M337.195,108.145C315.073,91.97,295.968,78,256,78l-80,178l80,205.191  c12.811-3.909,46.071-15.563,79.114-39.478C374.751,393.033,422,339.437,422,246.982V144.971  C381.655,140.652,358.21,123.511,337.195,108.145z"/>
<g>
	<path style="fill:#FFA358;" d="M174.805,108.145c-21.015,15.366-44.46,32.507-84.805,36.826v102.011   c0,92.477,47.272,146.069,86.941,174.753c32.904,23.83,66.226,35.524,79.059,39.457V78C216.032,78,196.927,91.97,174.805,108.145z"/>
	<path style="fill:#FFA358;" d="M325.389,124.288C304.516,109.027,289.435,98,256,98l-80,158l80,184.172   c14.387-4.874,40.959-15.533,67.39-34.661C359.252,379.562,402,330.995,402,246.982v-84.947   C366.822,154.584,344.131,137.992,325.389,124.288z"/>
</g>
<path style="fill:#FFC05D;" d="M186.61,124.289c-18.741,13.703-41.432,30.296-76.61,37.745v84.947  c0,84.03,42.776,132.599,78.673,158.555c26.316,19.06,52.921,29.736,67.327,34.636V98C222.565,98,207.484,109.027,186.61,124.289z"/>
<path style="fill:#FFED9A;" d="M256,328.589c8.284,0,15,6.716,15,15v44h9c24.301,0,44-19.699,44-44v-15l-34-10L256,328.589z"/>
<g>
	<polygon style="fill:#FFFDD2;" points="324,269.589 236,269.589 256,328.589 324,328.589  "/>
	<path style="fill:#FFFDD2;" d="M188,343.589c0,24.301,19.699,44,44,44h9v-44c0-8.284,6.716-15,15-15l-34-20l-34,20V343.589z"/>
</g>
<rect x="188" y="269.59" style="fill:#FFFFFF;" width="68" height="59"/>
<path style="fill:#FFFDD2;" d="M292,150.589c-13.833,0-26.446,5.208-36,13.761l-30,72.119l30,72.119h36c29.823,0,54-24.177,54-54  v-50C346,174.765,321.824,150.589,292,150.589z"/>
<path style="fill:#FFFFFF;" d="M220,150.589c-29.823,0-54,24.177-54,54v50c0,29.823,24.177,54,54,54h36V164.35  C246.446,155.796,233.833,150.589,220,150.589z"/>
<path style="fill:#FFF5B6;" d="M292,170.589c-8.373,0-16.42,3.076-22.659,8.662L256,191.195l-20,48.697l20,48.697h36  c18.748,0,34-15.252,34-34v-50C326,185.84,310.748,170.589,292,170.589z"/>
<g>
	<rect x="256" y="238.59" style="fill:#FFE57E;" width="20" height="20"/>
	<rect x="286" y="208.59" style="fill:#FFE57E;" width="20" height="20"/>
</g>
<path style="fill:#FFFDD2;" d="M256,191.196l-13.341-11.945c-6.238-5.586-14.285-8.662-22.659-8.662c-18.748,0-34,15.252-34,34v50  c0,18.748,15.252,34,34,34h36V191.196z"/>
<g>
</g>
<g>
</g>
<g>
</g>
<g>
</g>
<g>
</g>
<g>
</g>
<g>
</g>
<g>
</g>
<g>
</g>
<g>
</g>
<g>
</g>
<g>
</g>
<g>
</g>
<g>
</g>
<g>
</g>
</svg>
