<?xml version="1.0" encoding="iso-8859-1"?>
<!-- Generator: Adobe Illustrator 19.0.0, SVG Export Plug-In . SVG Version: 6.00 Build 0)  -->
<svg xmlns="http://www.w3.org/2000/svg" xmlns:xlink="http://www.w3.org/1999/xlink" version="1.1" id="Layer_1" x="0px" y="0px" viewBox="0 0 512 512" style="enable-background:new 0 0 512 512;" xml:space="preserve">
<path style="fill:#FFB59D;" d="M501.843,184.421C470.874,77.875,372.538,0,256,0C114.615,0,0,114.615,0,256  c0,126.834,92.244,232.106,213.3,252.435L501.843,184.421z"/>
<path style="fill:#FF9076;" d="M512,256c0-24.847-3.553-48.862-10.156-71.579L391.711,74.289L159.432,454.567l53.868,53.867  C227.188,510.767,241.449,512,256,512C397.385,512,512,397.385,512,256z"/>
<path style="fill:#FFED9A;" d="M376,293v82l-50,30l-50-30c0-11.05-8.95-20-20-20l-30-62H376z"/>
<path style="fill:#FFE57E;" d="M276,375v83c0,1.06,0.082,2.1,0.241,3.116l13.108,15.753c2.081,0.733,4.319,1.132,6.651,1.132  c44.18,0,80-35.82,80-80v-23L276,375L276,375z"/>
<path style="fill:#FFFDD2;" d="M136,375v-82h120v62c-11.05,0-20,8.95-20,20l-52,30L136,375z"/>
<path style="fill:#FFF5B6;" d="M136,375v23c0,44.18,35.82,80,80,80c2.332,0,4.571-0.399,6.652-1.132l13.107-15.753  C235.918,460.1,236,459.06,236,458v-83H136z"/>
<path style="fill:#FFED9A;" d="M421,145v90c0,55.23-44.77,100-100,100h-65l-50-132.995L256,69.01C273.48,54.04,296.18,45,321,45  C376.23,45,421,89.77,421,145z"/>
<g>
	<path style="fill:#FFFDD2;" d="M256,69.01V335h-65c-55.23,0-100-44.77-100-100v-90c0-55.23,44.77-100,100-100   C215.82,45,238.52,54.04,256,69.01z"/>
	<path style="fill:#FFFDD2;" d="M401,145v90c0,44.11-35.89,80-80,80h-65l-50-112.995L256,98.45C270.53,78.22,294.24,65,321,65   C365.11,65,401,100.89,401,145z"/>
</g>
<path style="fill:#FFFFFF;" d="M256,98.45V315h-65c-44.11,0-80-35.89-80-80v-90c0-44.11,35.89-80,80-80  C217.76,65,241.47,78.22,256,98.45z"/>
<path style="fill:#FFDC61;" d="M356,172.5V398c0,33.08-26.92,60-60,60c-0.03,0,0-83,0-83c0-22.06-17.94-40-40-40l-30-92l30-72.16  c0,0,28.62-20.32,40.87-28.97c6.11-4.33,13.57-6.87,21.63-6.87C339.21,135,356,151.79,356,172.5z"/>
<path style="fill:#FFE57E;" d="M256,170.84V335c-22.06,0-40,17.94-40,40v83c-33.08,0-60-26.92-60-60V172.5  c0-20.71,16.79-37.5,37.5-37.5c8.06,0,15.51,2.54,21.63,6.87C227.38,150.52,256,170.84,256,170.84z"/>
<path style="fill:#FF9076;" d="M336,172.5c0-9.649-7.851-17.5-17.5-17.5c-3.638,0-7.122,1.105-10.078,3.197  C296.169,166.849,256,194.844,256,194.844l-30,60.078L256,315c33.084,0,60,26.916,60,60l20-120V172.5z"/>
<path style="fill:#FFB59D;" d="M203.579,158.197c-2.956-2.092-6.44-3.197-10.078-3.197c-9.649,0-17.501,7.851-17.501,17.5V255  l20,120c0-33.084,26.916-60,60-60V194.844C256,194.844,215.832,166.849,203.579,158.197z"/>
<path style="fill:#FF9076;" d="M216,235h20v-20h-20c-22.056,0-40.001,17.944-40.001,40v143c0.003,33.922,18.864,63.51,46.645,78.847  c6.829-2.407,11.942-8.403,13.09-15.735c-23.484-11.308-39.732-35.344-39.734-63.105V295c0-11.028,8.972-20,20-20h20v-20h-20  c-7.283,0-14.112,1.966-20,5.381V255C196,243.972,204.972,235,216,235z"/>
<path style="fill:#FF6A4F;" d="M336,255c0-22.056-17.944-40-40-40h-20v20h20c11.028,0,20,8.972,20,20v5.381  c-5.888-3.415-12.717-5.381-20-5.381h-20v20h20c11.028,0,20,8.972,20,20l0.001,103.007c-0.003,27.761-16.25,51.797-39.734,63.105  c1.147,7.332,6.26,13.328,13.09,15.735c27.781-15.337,46.641-44.925,46.644-78.84V255H336z"/>
<g>
</g>
<g>
</g>
<g>
</g>
<g>
</g>
<g>
</g>
<g>
</g>
<g>
</g>
<g>
</g>
<g>
</g>
<g>
</g>
<g>
</g>
<g>
</g>
<g>
</g>
<g>
</g>
<g>
</g>
</svg>
