<?xml version="1.0" encoding="iso-8859-1"?>
<!-- Generator: Adobe Illustrator 19.0.0, SVG Export Plug-In . SVG Version: 6.00 Build 0)  -->
<svg version="1.1" id="Capa_1" xmlns="http://www.w3.org/2000/svg" xmlns:xlink="http://www.w3.org/1999/xlink" x="0px" y="0px"
	 viewBox="0 0 512 512" style="enable-background:new 0 0 512 512;" xml:space="preserve">
<path style="fill:#9B8E8B;" d="M152,456h-48c-4.418,0-8,3.582-8,8v24c0,4.418,3.582,8,8,8h48c4.418,0,8-3.582,8-8v-24
	C160,459.582,156.418,456,152,456z"/>
<path style="fill:#8F807D;" d="M112,488v-24c0-4.418,3.582-8,8-8h-16c-4.418,0-8,3.582-8,8v24c0,4.418,3.582,8,8,8h16
	C115.582,496,112,492.418,112,488z"/>
<path style="fill:#9B8E8B;" d="M408,456h-48c-4.418,0-8,3.582-8,8v24c0,4.418,3.582,8,8,8h48c4.418,0,8-3.582,8-8v-24
	C416,459.582,412.418,456,408,456z"/>
<path style="fill:#8F807D;" d="M368,488v-24c0-4.418,3.582-8,8-8h-16c-4.418,0-8,3.582-8,8v24c0,4.418,3.582,8,8,8h16
	C371.582,496,368,492.418,368,488z"/>
<path style="fill:#AE85CC;" d="M410.08,237.56L344,188V96c0-4.418-3.582-8-8-8h-40c-4.418,0-8,3.582-8,8v56h-64.333V96
	c0-4.418-3.582-8-8-8H176c-4.418,0-8,3.582-8,8v99.719l-62.691,41.794C84.452,251.417,72,274.684,72,299.75V464c0,4.418,3.582,8,8,8
	h352c4.418,0,8-3.582,8-8V297.4C440,273.981,428.815,251.612,410.08,237.56z"/>
<path style="fill:#9968BD;" d="M96,464V299.75c0-25.067,12.452-48.333,33.309-62.237L192,195.719V96c0-4.418,3.582-8,8-8h-24
	c-4.418,0-8,3.582-8,8v99.719l-62.691,41.794C84.452,251.417,72,274.684,72,299.75V464c0,4.418,3.582,8,8,8h24
	C99.582,472,96,468.418,96,464z"/>
<path style="fill:#E6E3E2;" d="M256,216c-61.856,0-112,50.144-112,112s50.144,112,112,112s112-50.144,112-112S317.856,216,256,216z
	 M256,240c8.837,0,16,7.163,16,16s-7.163,16-16,16s-16-7.163-16-16S247.163,240,256,240z M169.337,312.719
	c1.534-8.702,9.833-14.513,18.535-12.979s14.513,9.833,12.979,18.535c-1.535,8.702-9.833,14.513-18.535,12.979
	C173.613,329.72,167.802,321.421,169.337,312.719z M201.646,377.856c-7.653,4.418-17.438,1.796-21.856-5.856
	c-4.418-7.653-1.796-17.438,5.856-21.856c7.653-4.418,17.438-1.796,21.856,5.856C211.921,363.653,209.299,373.438,201.646,377.856z
	 M197.463,283.129c-5.68-6.769-4.797-16.861,1.972-22.541s16.861-4.797,22.541,1.972c5.68,6.769,4.797,16.861-1.972,22.541
	C213.235,290.781,203.143,289.899,197.463,283.129z M246.41,401.13c-3.022,8.304-12.204,12.585-20.507,9.563
	c-8.304-3.022-12.585-12.204-9.563-20.507s12.204-12.585,20.507-9.563C245.151,383.645,249.432,392.827,246.41,401.13z M224,328
	c0-17.673,14.327-32,32-32s32,14.327,32,32s-14.327,32-32,32S224,345.673,224,328z M286.098,410.693
	c-8.304,3.022-17.485-1.259-20.507-9.563c-3.022-8.303,1.259-17.485,9.563-20.507s17.485,1.259,20.507,9.563
	S294.401,407.671,286.098,410.693z M291.996,285.102c-6.769-5.68-7.652-15.772-1.972-22.541c5.68-6.769,15.772-7.652,22.541-1.972
	c6.769,5.68,7.652,15.772,1.972,22.541C308.857,289.899,298.765,290.781,291.996,285.102z M332.21,372
	c-4.418,7.653-14.204,10.275-21.856,5.856c-7.653-4.418-10.275-14.204-5.856-21.856c4.418-7.653,14.204-10.275,21.856-5.856
	C334.007,354.562,336.628,364.347,332.21,372z M329.685,331.254c-8.702,1.534-17.001-4.276-18.535-12.979
	c-1.534-8.702,4.276-17.001,12.979-18.535c8.702-1.535,17.001,4.276,18.535,12.979S338.387,329.72,329.685,331.254z"/>
<path style="fill:#C4A0DE;" d="M503.692,133.802c-0.354-1.241-9.093-30.731-44.606-59.978
	c-20.517-16.896-45.871-30.331-75.359-39.932C347.26,22.02,304.286,16,256,16s-91.26,6.02-127.727,17.893
	C98.785,43.494,73.43,56.929,52.914,73.825C17.4,103.071,8.662,132.561,8.308,133.802c-0.771,2.701-0.069,5.609,1.849,7.661
	s4.772,2.949,7.52,2.36C18.788,143.584,130.388,120,256,120s237.212,23.584,238.324,23.823c0.557,0.119,1.118,0.177,1.675,0.177
	c2.19,0,4.315-0.901,5.845-2.537C503.762,139.411,504.464,136.503,503.692,133.802z"/>
<path style="fill:#AE85CC;" d="M432,56c-44.112,0-80,35.888-80,80c0,4.418,3.582,8,8,8h144c4.418,0,8-3.582,8-8
	C512,91.888,476.112,56,432,56z"/>
<path style="fill:#9968BD;" d="M376,136c0-40.034,29.56-73.291,68-79.098C440.084,56.311,436.078,56,432,56
	c-44.112,0-80,35.888-80,80c0,4.418,3.582,8,8,8h24C379.582,144,376,140.418,376,136z"/>
<path style="fill:#C4A0DE;" d="M512,128H352v24c0,4.418,3.582,8,8,8h144c4.418,0,8-3.582,8-8V128z"/>
<g>
	<path style="fill:#AE85CC;" d="M376,152v-24h-24v24c0,4.418,3.582,8,8,8h24C379.582,160,376,156.418,376,152z"/>
	<path style="fill:#AE85CC;" d="M80,56C35.888,56,0,91.888,0,136c0,4.418,3.582,8,8,8h144c4.418,0,8-3.582,8-8
		C160,91.888,124.112,56,80,56z"/>
</g>
<path style="fill:#9968BD;" d="M24,136c0-40.034,29.56-73.291,68-79.098C88.084,56.311,84.078,56,80,56C35.888,56,0,91.888,0,136
	c0,4.418,3.582,8,8,8h24C27.582,144,24,140.418,24,136z"/>
<path style="fill:#C4A0DE;" d="M160,128H0v24c0,4.418,3.582,8,8,8h144c4.418,0,8-3.582,8-8V128z"/>
<path style="fill:#AE85CC;" d="M24,152v-24H0v24c0,4.418,3.582,8,8,8h24C27.582,160,24,156.418,24,152z"/>
<g>
</g>
<g>
</g>
<g>
</g>
<g>
</g>
<g>
</g>
<g>
</g>
<g>
</g>
<g>
</g>
<g>
</g>
<g>
</g>
<g>
</g>
<g>
</g>
<g>
</g>
<g>
</g>
<g>
</g>
</svg>
