<?xml version="1.0" encoding="iso-8859-1"?>
<!-- Generator: Adobe Illustrator 19.0.0, SVG Export Plug-In . SVG Version: 6.00 Build 0)  -->
<svg xmlns="http://www.w3.org/2000/svg" xmlns:xlink="http://www.w3.org/1999/xlink" version="1.1" id="Layer_1" x="0px" y="0px" viewBox="0 0 512 512" style="enable-background:new 0 0 512 512;" xml:space="preserve">
<path style="fill:#FFD2D8;" d="M503.807,191.526C475.223,81.353,375.115,0,256,0C114.615,0,0,114.615,0,256  c0,115.408,76.373,212.967,181.332,244.924L503.807,191.526z"/>
<path style="fill:#FFB59D;" d="M107.086,426.679l74.246,74.246C204.957,508.117,230.023,512,256,512c141.385,0,256-114.615,256-256  c0-22.271-2.849-43.875-8.194-64.474L374.64,62.36L107.086,426.679z"/>
<path style="fill:#FF6A4F;" d="M416,296c-16.5,0-30,13.5-30,30v10.001L346,396l107.453-29.999  c11.965-21.429,20.553-44.999,25.019-70.001H416z"/>
<path style="fill:#E2573E;" d="M231,366l25,116c84.881,0,158.818-46.803,197.451-116H231z"/>
<path style="fill:#FF9076;" d="M96,296c16.5,0,30,13.5,30,30v10.001L166,396L58.547,366.001  C46.582,344.572,37.994,321.002,33.529,296H96z"/>
<path style="fill:#FF6A4F;" d="M256,366v116c-84.881,0-158.818-46.803-197.451-116H256z"/>
<path style="fill:#642A24;" d="M386,336v20.12c0,49.63-40.37,90-90,90h-40l-40-55.06L256,336H386z"/>
<path style="fill:#872D20;" d="M256,336v110.12h-40c-49.63,0-90-40.37-90-90V336H256z"/>
<path style="fill:#FFED9A;" d="M276,336l45,26.364L366,336v-72.061H226L256,316C267.05,316,276,324.95,276,336z"/>
<path style="fill:#FFF5B6;" d="M366,336v20.125c0,38.657-31.342,70-70,70c-11.05,0-20-8.95-20-20V336H366z"/>
<path style="fill:#FFFDD2;" d="M236,336l-45,26.364L146,336v-72.061h110V316C244.95,316,236,324.95,236,336z"/>
<path style="fill:#FFF5B6;" d="M146,336v20.125c0,38.657,31.342,70,70,70c11.05,0,20-8.95,20-20V336H146z"/>
<path style="fill:#FFED9A;" d="M311,36c-20.714,0-39.79,7.002-55,18.763l-33.5,124.625L256,296c0,0,34.286,0,55,0  c49.706,0,90-40.294,90-90v-80C401,76.294,360.706,36,311,36z"/>
<g>
	<path style="fill:#FFFDD2;" d="M201,36c-49.706,0-90,40.294-90,90v80c0,49.706,40.294,90,90,90c20.714,0,55,0,55,0V54.763   C240.79,43.002,221.714,36,201,36z"/>
	<path style="fill:#FFFDD2;" d="M311,56c-22.294,0-42.172,10.488-55,26.776l-33.5,96.612L256,276c0,0,32.706,0,55,0   c38.599,0,70-31.401,70-70v-80C381,87.401,349.599,56,311,56z"/>
</g>
<g>
	<rect x="341" y="126" style="fill:#FFFFFF;" width="20" height="20"/>
	<rect x="301" y="86" style="fill:#FFFFFF;" width="20" height="20"/>
	<path style="fill:#FFFFFF;" d="M201,56c-38.599,0-70,31.401-70,70v80c0,38.599,31.401,70,70,70c22.294,0,55,0,55,0V82.776   C243.172,66.488,223.294,56,201,56z"/>
</g>
<polygon style="fill:#FFED9A;" points="256,152.776 236,222.775 256,286 296,286 296,222.775 326,222.775 "/>
<polygon style="fill:#FFFDD2;" points="186,222.775 216,222.775 216,286 256,286 256,152.776 "/>
<g>
</g>
<g>
</g>
<g>
</g>
<g>
</g>
<g>
</g>
<g>
</g>
<g>
</g>
<g>
</g>
<g>
</g>
<g>
</g>
<g>
</g>
<g>
</g>
<g>
</g>
<g>
</g>
<g>
</g>
</svg>
